HIERARCHY
ROOT pelvis
{
  OFFSET 0 100 0
  CHANNELS 6 Xposition Yposition Zposition Zrotation Xrotation Yrotation
  JOINT pelvis_right_femur
  {
    OFFSET -10.78128 -3.44521 -0.5502486
    CHANNELS 3 Zrotation Xrotation Yrotation
    JOINT right_femur_tibia
    {
      OFFSET -0.8047443 -44.0398 -0.1307829
      CHANNELS 3 Zrotation Xrotation Yrotation
      JOINT right_tibia_foot
      {
        OFFSET 3.006224 -47.83518 -5
        CHANNELS 3 Zrotation Xrotation Yrotation
        End Site
        {
          OFFSET 0 -5 15
        }
      }
    }
  }
  JOINT pelvis_left_femur
  {
    OFFSET 10.78128 -3.44521 -0.5502486
    CHANNELS 3 Zrotation Xrotation Yrotation
    JOINT left_femur_tibia
    {
      OFFSET 0.8047443 -44.0398 -0.1307829
      CHANNELS 3 Zrotation Xrotation Yrotation
      JOINT left_tibia_foot
      {
        OFFSET -4.370144 -48.10324 -4.275266
        CHANNELS 3 Zrotation Xrotation Yrotation
        End Site
        {
          OFFSET 0 -5 15
        }
      }
    }
  }
  JOINT pelvis_spine1
  {
    OFFSET 0 6.468898 -3.129235
    CHANNELS 3 Zrotation Xrotation Yrotation
    JOINT spine1
    {
      OFFSET 0 23.15396 4.99043
      CHANNELS 3 Zrotation Xrotation Yrotation
      JOINT spine2
      {
        OFFSET 0 20.79997 -5.064912
        CHANNELS 3 Zrotation Xrotation Yrotation
        JOINT neck
        {
          OFFSET 0 14.38658 9.616178
          CHANNELS 3 Zrotation Xrotation Yrotation
          End Site
          {
            OFFSET 0 20 0
          }
        }
      }
      JOINT right_manubrium
      {
        OFFSET -5.722621 16.35077 3.967754
        CHANNELS 3 Zrotation Xrotation Yrotation
        JOINT right_clavicle
        {
          OFFSET -13.16364 1.694482 -4.693211
          CHANNELS 3 Zrotation Xrotation Yrotation
          JOINT right_humerus
          {
            OFFSET -28.5034 -0.3100689 -2.792744
            CHANNELS 3 Zrotation Xrotation Yrotation
            JOINT right_radius
            {
              OFFSET -25.15693 0.02248979 -1.271978
              CHANNELS 3 Zrotation Xrotation Yrotation
              End Site
              {
                OFFSET -15 0 0
              }
            }
          }
        }
      }
      JOINT left_manubrium
      {
        OFFSET 5.722621 16.35077 3.967754
        CHANNELS 3 Zrotation Xrotation Yrotation
        JOINT left_clavicle
        {
          OFFSET 13.16364 1.694482 -4.693211
          CHANNELS 3 Zrotation Xrotation Yrotation
          JOINT left_humerus
          {
            OFFSET 29.39168 -1.063119 -2.237045
            CHANNELS 3 Zrotation Xrotation Yrotation
            JOINT left_radius
            {
              OFFSET 24.59957 -0.9528479 0.9047498
              CHANNELS 3 Zrotation Xrotation Yrotation
              End Site
              {
                OFFSET 15 -0 -0
              }
            }
          }
        }
      }
    }
  }
}
MOTION
Frames: 9
Frame Time: 0.0416666666667
1003.668 195.439 3061.54 2.661027 -3.797259 31.07385 2.25097 -24.32666 1.239924 -0 17.3325 -0 -3.270669 3.545404 -7.145492 -4.883518 14.10267 -6.286903 -0 15.31263 -0 -0.7875751 -19.68076 14.96651 -2.182619 -0.8354059 2.667139 2.4826 11.87589 -9.371115 0.9218326 20.95408 6.71101 1.967176 -21.55205 7.737986 0.2981049 -17.83176 11.66664 93.55728 23.08979 -23.81538 -0 0 7.271424 -22.47647 11.93686 11.97271 6.001771 -25.07884 -5.342253 -82.5084 19.7785 8.12987 0 0 -29.19463 4.322564 7.781964 8.639133
1006.855 194.6431 3067.005 2.251708 -3.419058 31.37681 2.763463 -25.98518 1.394585 -0 13.61989 -0 -2.971773 3.306483 -7.251107 -4.771737 15.40347 -6.161242 -0 17.29926 -0 -1.36849 -19.56093 14.4547 -1.919876 -1.020829 2.686448 2.67407 11.78426 -9.592973 0.9735549 20.68225 6.793866 1.941081 -21.83189 7.926731 0.2324469 -17.56992 11.65682 93.98506 23.09625 -24.85412 -0 0 6.540441 -22.30776 12.49173 11.69026 6.177522 -25.4707 -5.190482 -82.07221 19.47796 7.444358 0 0 -30.93351 4.504463 7.73467 8.412376
1010.143 193.9112 3072.723 1.920694 -3.217074 31.59653 3.36697 -26.69712 1.706798 -0 10.91817 -0 -2.705416 3.159692 -7.329776 -4.621593 16.25168 -6.035083 -0 20.38246 -0 -2.186396 -18.89024 13.95695 -1.566544 -1.192822 2.75097 2.778129 11.73089 -9.690144 1.043929 20.46663 6.838028 1.90452 -22.02318 8.093293 0.1602431 -17.32409 11.63374 94.3677 22.97027 -25.65398 -0 0 5.922104 -22.14043 12.92822 11.42037 6.233542 -25.6414 -5.040284 -81.83652 19.25247 7.083348 0 0 -32.12161 4.571721 7.559654 8.359241
1013.535 193.3601 3078.7 1.694568 -3.207578 31.71676 4.042795 -26.34398 2.192093 -0 9.299823 -0 -2.489866 2.938093 -7.394158 -4.421054 16.54436 -5.911314 -0 24.57696 -0 -3.175797 -17.61136 13.52322 -1.133318 -1.354779 2.878087 2.799529 11.73301 -9.673693 1.118227 20.31714 6.829879 1.853747 -22.10793 8.206593 0.1112248 -17.12008 11.61259 94.66408 22.75503 -26.1969 -0 0 5.485161 -21.95479 13.24253 11.16113 6.147014 -25.58788 -4.90947 -81.82191 19.13721 7.093538 0 0 -32.69477 4.502127 7.263843 8.508277
1017.016 193.0976 3084.908 1.597375 -3.378032 31.71616 4.737291 -24.85909 2.832576 -0 8.735656 -0 -2.342424 2.508263 -7.439263 -4.168531 16.12488 -5.787296 -0 29.79909 -0 -4.210733 -15.74049 13.23148 -0.659061 -1.504662 3.102476 2.745279 11.81001 -9.554426 1.183892 20.23701 6.756806 1.795123 -22.08602 8.233231 0.1241836 -16.99562 11.61366 94.82191 22.54126 -26.46398 -0 0 5.307898 -21.74247 13.44591 10.91838 5.909969 -25.3275 -4.809201 -82.04765 19.15321 7.528256 0 0 -32.62666 4.298426 6.869418 8.863328
1020.545 193.2061 3091.278 1.648936 -3.686888 31.57688 5.360765 -22.27948 3.560475 -0 9.072447 -0 -2.280012 1.820284 -7.437605 -3.877122 14.80844 -5.650241 -0 35.79875 -0 -5.127545 -13.41119 13.1646 -0.212699 -1.624319 3.463879 2.622568 11.97645 -9.338627 1.232773 20.22635 6.614263 1.747021 -21.97258 8.146611 0.2368028 -16.99141 11.6584 94.7838 22.45691 -26.42947 -0 0 5.453787 -21.5204 13.56225 10.71352 5.539811 -24.9029 -4.741672 -82.52009 19.29492 8.417575 0 0 -31.95072 3.994502 6.418626 9.388545
1024.067 193.7181 3097.708 1.861786 -4.076572 31.29564 5.810462 -18.77625 4.263436 -0 10.02446 -0 -2.31834 0.9266801 -7.340947 -3.567597 12.43438 -5.481042 -0 42.08738 -0 -5.774473 -10.89277 13.3824 0.1206829 -1.673298 3.986178 2.434727 12.22985 -9.021865 1.264942 20.28818 6.410656 1.734699 -21.78767 7.939983 0.4630884 -17.14147 11.76072 94.49607 22.62058 -26.04758 -0 0 5.953687 -21.33596 13.61344 10.58406 5.086741 -24.37527 -4.69965 -83.22535 19.52989 9.738626 0 0 -30.7645 3.646315 5.976631 10.0077
1027.518 194.5923 3104.074 2.232971 -4.49874 30.89148 6.013968 -14.63017 4.814882 -0 11.20611 -0 -2.467736 -0.0664832 -7.093478 -3.246797 8.93517 -5.267228 -0 47.89813 -0 -6.074663 -8.55081 13.90466 0.2740341 -1.594423 4.654301 2.177393 12.53582 -8.584421 1.292565 20.43378 6.164716 1.774249 -21.54269 7.638987 0.761916 -17.46853 11.91413 93.91987 23.05989 -25.23615 -0 0 6.811689 -21.24987 13.59081 10.57167 4.630106 -23.79835 -4.667066 -84.134 19.81813 11.40794 0 0 -29.19822 3.305581 5.623911 10.62754
1030.843 195.7004 3110.257 2.727329 -4.936087 30.4037 5.970303 -10.14565 5.114935 -0 12.21469 -0 -2.726672 -1.119955 -6.656897 -2.882338 4.398457 -5.013553 -0 52.23208 -0 -6.071353 -6.740474 14.71043 0.2411167 -1.335595 5.401476 1.840932 12.81731 -7.996932 1.338984 20.68171 5.893737 1.850113 -21.2346 7.303836 1.015985 -17.98607 12.08088 93.04372 23.639 -23.87712 -0 0 8.034481 -21.29609 13.42824 10.70113 4.25783 -23.1808 -4.619049 -85.21893 20.14405 13.30954 0 0 -27.35287 2.988145 5.4356 11.17989
